<!DOCTYPE svg PUBLIC "-//W3C//DTD SVG 20010904//EN" "http://www.w3.org/TR/2001/REC-SVG-20010904/DTD/svg10.dtd">
<svg version="1.0" xmlns="http://www.w3.org/2000/svg" width="600px" height="600px" viewBox="0 0 6000 6000" preserveAspectRatio="xMidYMid meet">
<g id="layer101" fill="#fe9100" stroke="none">
 <path d="M1705 5378 c-3 -7 -4 -180 -3 -383 l3 -370 50 0 c44 0 50 3 53 23 2 12 6 22 10 22 3 0 16 -10 30 -22 20 -20 37 -23 117 -26 72 -3 101 0 129 13 37 18 100 87 126 139 21 40 21 232 0 272 -27 54 -68 99 -107 118 -21 10 -46 22 -55 27 -24 12 -135 11 -143 -1 -3 -5 -13 -10 -21 -10 -9 0 -31 -12 -49 -26 l-34 -26 -3 129 -3 128 -48 3 c-32 2 -49 -1 -52 -10z m362 -345 c47 -49 59 -89 49 -159 -7 -53 -23 -79 -73 -119 -64 -51 -140 -35 -210 45 -19 21 -22 37 -23 101 l0 76 50 51 c51 52 70 60 130 53 26 -3 46 -15 77 -48z"/>
 <path d="M700 5190 c-8 -5 -29 -10 -47 -10 -17 0 -34 -4 -37 -9 -3 -4 -18 -11 -33 -14 -16 -3 -47 -22 -70 -42 -36 -31 -42 -41 -37 -63 16 -68 54 -90 89 -52 10 11 39 30 64 41 25 12 54 25 63 30 23 11 123 12 146 1 75 -37 77 -39 80 -85 3 -40 0 -47 -27 -66 -16 -12 -38 -21 -49 -21 -12 0 -24 -4 -27 -10 -3 -5 -28 -12 -56 -16 -27 -4 -52 -11 -55 -15 -3 -5 -16 -9 -29 -9 -13 0 -26 -4 -29 -9 -3 -5 -21 -12 -39 -15 -34 -6 -80 -48 -104 -95 -15 -28 -17 -137 -3 -146 6 -3 10 -14 10 -23 1 -25 58 -77 116 -106 44 -22 65 -26 143 -26 50 0 99 4 109 9 9 4 44 22 77 38 69 34 78 55 45 108 -23 37 -61 48 -77 22 -14 -22 -66 -54 -102 -62 -18 -4 -57 -4 -85 -1 -42 6 -60 14 -89 43 -20 19 -37 44 -37 54 0 27 66 89 95 89 13 0 26 4 29 9 3 5 31 12 62 16 32 4 64 11 73 15 32 17 89 40 98 40 17 0 73 68 73 89 0 11 5 23 10 26 14 9 12 73 -3 116 -19 55 -63 106 -97 114 -16 4 -32 11 -35 16 -4 5 -17 9 -30 9 -13 0 -27 5 -30 10 -8 13 -135 13 -155 0z"/>
 <path d="M1205 5181 c-38 -22 -84 -88 -85 -121 0 -15 -5 -31 -10 -36 -7 -7 -9 -82 -8 -205 l3 -194 55 0 55 0 3 175 c1 96 7 179 12 184 6 6 10 20 10 31 0 60 92 87 151 44 84 -60 89 -73 92 -269 l2 -165 55 0 55 0 2 220 c2 133 7 228 14 241 6 11 9 36 7 55 -3 33 -4 34 -54 37 -45 3 -53 0 -68 -23 l-16 -25 -40 25 c-22 14 -46 25 -54 25 -8 0 -18 5 -21 10 -10 17 -127 10 -160 -9z"/>
 <path d="M2470 5191 c-8 -5 -32 -17 -53 -27 -48 -24 -83 -63 -119 -133 -23 -45 -28 -67 -28 -128 0 -40 4 -81 9 -91 5 -9 15 -30 22 -46 19 -40 90 -109 132 -130 36 -17 154 -22 216 -10 39 8 136 94 155 138 31 70 37 95 34 137 l-3 44 -217 5 -218 5 21 43 c27 54 70 84 128 89 56 5 109 -21 130 -61 12 -26 16 -28 60 -21 25 4 49 9 54 12 13 8 7 47 -11 75 -23 35 -96 88 -121 88 -11 0 -23 5 -26 10 -7 12 -144 12 -165 1z m230 -363 c-6 -13 -13 -30 -16 -38 -12 -31 -66 -63 -115 -68 -42 -4 -55 0 -98 27 -44 29 -60 52 -61 89 0 9 37 12 150 12 l149 0 -9 -22z"/>
 <path d="M3820 5191 c-8 -5 -31 -16 -50 -26 -59 -32 -96 -75 -141 -167 -12 -25 -11 -165 1 -173 6 -3 10 -16 10 -27 0 -12 11 -36 25 -54 14 -18 25 -38 25 -44 0 -6 8 -14 18 -17 9 -4 32 -18 51 -32 28 -21 48 -26 108 -29 119 -6 155 3 212 54 84 75 137 234 102 302 -15 27 -41 89 -41 96 0 10 -61 69 -92 89 -15 9 -36 17 -47 17 -11 0 -23 5 -26 10 -7 12 -133 12 -155 1z m152 -131 c40 -23 78 -71 78 -99 0 -11 5 -23 10 -26 6 -3 10 -17 10 -30 0 -13 -4 -27 -10 -30 -5 -3 -10 -17 -10 -30 0 -57 -104 -131 -170 -120 -42 7 -97 58 -124 114 -18 38 -22 106 -6 116 6 3 10 15 10 25 0 10 21 37 46 59 39 34 54 41 90 41 25 0 57 -8 76 -20z"/>
 <path d="M4415 5190 c-3 -5 -13 -10 -21 -10 -27 0 -104 -56 -136 -100 l-33 -44 0 -126 c0 -124 0 -125 32 -174 17 -26 51 -62 75 -80 42 -31 44 -31 159 -31 112 0 117 1 155 29 59 44 85 80 109 151 13 40 6 204 -10 240 -22 45 -73 96 -121 119 -21 10 -47 22 -56 27 -24 12 -145 11 -153 -1z m175 -155 c42 -43 45 -48 48 -113 5 -84 -16 -139 -67 -172 -42 -27 -105 -32 -146 -10 -44 24 -95 112 -95 165 0 53 11 75 65 133 37 40 42 42 95 42 53 0 58 -2 100 -45z"/>
 <path d="M4882 5168 l-42 -32 2 -355 3 -356 55 0 55 0 3 314 c1 212 6 319 13 328 6 7 28 13 49 13 29 0 41 -6 54 -25 17 -25 68 -35 81 -16 12 21 73 43 130 48 51 4 64 2 88 -17 55 -44 28 -81 -83 -110 -25 -7 -54 -16 -65 -21 -11 -4 -31 -11 -45 -15 -35 -9 -90 -52 -90 -70 0 -8 -6 -23 -12 -34 -10 -16 -10 -24 0 -40 6 -11 12 -31 12 -45 0 -35 69 -102 115 -111 60 -11 216 1 252 20 37 20 51 55 37 95 -13 36 -57 41 -91 9 -21 -20 -35 -23 -100 -23 -75 0 -76 0 -94 32 l-18 32 28 21 c16 11 36 20 44 20 9 0 18 4 22 9 3 5 31 13 63 17 31 3 68 14 82 24 14 9 32 19 41 23 47 16 66 148 29 209 -10 18 -36 41 -57 52 -21 10 -46 22 -55 27 -24 12 -185 11 -193 -1 -3 -5 -13 -10 -21 -10 -8 0 -32 -11 -54 -25 l-39 -24 -3 22 c-2 15 -11 23 -28 25 -14 2 -29 8 -34 13 -22 21 -90 9 -134 -23z"/>
 <path d="M2885 5168 c-3 -7 -4 -132 -3 -278 l3 -265 55 0 c53 0 55 1 58 28 l3 27 36 -27 c30 -23 46 -28 97 -28 l61 0 0 50 c0 48 -1 50 -29 53 -45 5 -109 46 -138 88 -26 38 -27 44 -30 199 l-3 160 -53 3 c-36 2 -54 -1 -57 -10z"/>
 <path d="M3367 5174 c-4 -4 -7 -148 -7 -320 l0 -313 -122 -3 -123 -3 -3 -38 c-6 -68 -12 -67 307 -67 210 0 290 3 299 12 16 16 16 70 0 86 -8 8 -50 12 -125 12 l-113 0 -2 318 -3 317 -50 3 c-28 2 -54 0 -58 -4z"/>
 <path d="M1716 4281 c-3 -4 -27 -11 -54 -14 -27 -3 -64 -15 -83 -26 -19 -12 -43 -25 -54 -30 -52 -24 -175 -194 -175 -242 0 -10 -4 -21 -10 -24 -6 -4 -10 -57 -10 -125 0 -68 4 -121 10 -125 6 -3 10 -14 10 -24 0 -23 28 -78 65 -126 17 -22 272 -283 567 -580 l538 -540 -379 -379 c-226 -226 -381 -374 -385 -367 -4 6 -33 11 -66 11 -53 0 -60 -3 -86 -34 -57 -66 -69 -81 -79 -97 -5 -9 -37 -52 -70 -94 -33 -43 -64 -85 -70 -94 -5 -9 -20 -31 -32 -48 -17 -23 -23 -45 -23 -87 l0 -57 87 -90 c48 -50 100 -97 115 -105 49 -26 128 -14 169 26 9 8 51 40 94 70 43 30 86 63 96 73 11 9 23 17 27 17 5 0 19 11 32 25 13 14 29 25 36 25 7 0 22 16 34 36 19 29 22 46 18 100 l-4 66 135 133 c561 551 546 537 549 503 2 -17 -1 -35 -7 -41 -13 -13 -15 -183 -3 -191 5 -3 12 -42 15 -87 4 -46 11 -87 17 -93 5 -5 10 -20 10 -32 0 -13 4 -25 9 -29 5 -3 12 -19 16 -35 8 -36 32 -87 46 -95 5 -4 9 -13 9 -22 0 -9 11 -31 25 -49 14 -18 25 -36 25 -41 0 -4 29 -37 64 -73 156 -160 221 -204 411 -282 l80 -32 246 -1 c229 0 248 1 268 19 15 14 21 31 21 64 l0 44 -217 218 c-120 120 -224 228 -230 239 -57 95 -67 127 -66 227 0 52 5 99 10 106 6 7 14 27 17 44 4 18 16 40 27 50 10 9 19 21 19 25 0 19 101 104 150 126 105 47 169 52 285 23 87 -22 130 -57 391 -319 122 -122 198 -191 211 -191 11 0 34 7 51 15 29 15 31 20 37 91 11 113 1 422 -13 436 -7 7 -12 22 -12 34 0 13 -4 25 -9 28 -5 3 -12 21 -15 40 -18 95 -154 291 -268 387 -68 58 -173 127 -218 145 -8 3 -38 17 -67 30 -29 13 -73 27 -98 31 -25 3 -48 10 -51 14 -3 5 -32 9 -64 9 -32 0 -62 5 -65 10 -3 6 -48 10 -100 10 -52 0 -97 -4 -100 -10 -3 -5 -18 -10 -32 -10 -25 0 -24 2 23 54 27 30 56 54 63 55 8 1 28 -11 44 -26 27 -27 33 -28 128 -28 l99 0 345 345 c336 336 385 393 385 448 0 11 4 24 10 27 13 8 13 102 0 110 -5 3 -10 15 -10 25 0 49 -44 116 -133 204 -130 129 -181 165 -234 166 -12 0 -25 5 -28 10 -3 6 -28 10 -55 10 -27 0 -52 -4 -55 -10 -3 -5 -18 -10 -32 -10 -14 0 -41 -8 -61 -17 -35 -17 -661 -633 -715 -704 -24 -31 -27 -45 -27 -108 0 -66 3 -77 32 -117 17 -24 36 -44 42 -44 6 0 -32 -43 -84 -96 l-95 -95 -475 478 c-676 681 -682 685 -786 700 -25 3 -47 10 -50 14 -7 12 -151 12 -158 0z m119 -151 c3 -5 18 -10 32 -10 14 0 41 -8 60 -17 21 -10 317 -298 717 -698 374 -375 691 -687 703 -694 27 -14 90 -15 98 -1 3 6 21 10 39 10 17 0 37 5 44 12 16 16 309 17 343 2 13 -6 49 -19 79 -28 83 -26 147 -60 235 -126 93 -68 82 -58 145 -134 27 -32 68 -98 91 -145 23 -47 45 -94 50 -103 5 -10 9 -26 9 -36 0 -10 5 -23 11 -29 6 -6 13 -51 16 -100 3 -48 10 -93 14 -99 6 -7 4 -16 -4 -22 -11 -9 -43 17 -148 122 -133 131 -248 226 -275 226 -7 0 -30 10 -51 22 -34 20 -52 22 -185 22 -105 1 -151 -3 -159 -11 -7 -7 -21 -13 -31 -13 -10 0 -26 -4 -36 -10 -9 -5 -35 -17 -57 -27 -58 -26 -185 -154 -211 -213 -3 -8 -12 -29 -20 -47 -8 -17 -14 -38 -14 -46 0 -9 -5 -19 -10 -22 -6 -3 -10 -28 -10 -55 0 -27 -5 -52 -11 -56 -7 -4 -8 -22 -5 -48 4 -22 9 -63 12 -91 3 -27 10 -54 15 -59 5 -6 9 -16 9 -22 0 -18 16 -53 45 -99 14 -22 29 -49 34 -60 5 -11 80 -89 165 -174 86 -84 156 -157 156 -161 0 -10 -183 0 -194 11 -6 5 -20 9 -32 9 -13 0 -26 5 -29 10 -3 5 -15 10 -27 10 -11 0 -35 7 -54 15 -19 8 -51 22 -71 31 -21 9 -59 32 -86 50 -26 19 -50 34 -54 34 -9 0 -163 160 -163 169 0 5 -7 14 -15 21 -13 11 -67 115 -96 185 -24 58 -39 120 -39 160 0 24 -4 47 -10 50 -12 8 -13 142 -1 149 4 3 11 34 14 68 6 60 19 112 38 150 5 10 5 20 -1 23 -6 3 -10 13 -10 22 0 9 -303 319 -672 690 -743 745 -708 709 -708 723 0 5 -9 25 -20 45 -29 52 -28 157 3 216 60 117 138 189 205 189 17 0 34 5 37 10 3 6 24 10 45 10 21 0 42 -4 45 -10z m2380 0 c3 -5 14 -10 24 -10 22 0 241 -222 241 -244 0 -9 6 -25 12 -36 10 -16 10 -24 0 -40 -6 -11 -12 -27 -12 -37 0 -9 -147 -164 -327 -345 -270 -271 -332 -328 -355 -328 -20 0 -41 14 -79 55 -41 44 -58 55 -83 55 -42 0 -66 -18 -192 -143 -96 -95 -110 -106 -123 -92 -13 13 0 29 112 144 164 166 163 157 35 293 -16 16 -28 34 -28 41 0 20 641 657 680 677 40 20 86 25 95 10z m-1555 -1849 c0 -4 -184 -193 -410 -421 -379 -383 -410 -418 -410 -449 0 -19 8 -43 18 -54 16 -19 16 -20 -1 -31 -18 -11 -86 -63 -199 -152 l-58 -46 -57 56 -57 55 38 53 c20 29 62 84 92 122 30 38 54 73 54 77 0 13 33 20 44 9 5 -5 30 -10 54 -10 l43 0 412 409 c313 311 415 407 424 399 7 -6 13 -13 13 -17z"/>
 <path d="M1679 3978 c-9 -7 -29 -30 -44 -51 -25 -33 -28 -47 -27 -103 1 -77 22 -112 85 -143 80 -39 169 -22 214 40 50 68 57 124 22 186 -39 71 -50 78 -147 81 -61 2 -92 0 -103 -10z"/>
 <path d="M2070 3531 c-5 -11 -10 -36 -10 -57 0 -40 -33 -5 626 -668 50 -50 144 -142 209 -203 107 -102 121 -113 155 -113 47 0 70 24 70 76 0 38 -10 48 -428 464 -562 558 -521 520 -570 520 -31 0 -44 -5 -52 -19z"/>
 <path d="M3837 3742 c-295 -296 -297 -300 -239 -355 57 -55 60 -54 354 241 263 262 268 269 268 308 0 52 -23 74 -76 74 -39 0 -47 -7 -307 -268z"/>
 <path d="M3997 3607 c-140 -139 -259 -263 -266 -274 -30 -57 7 -113 73 -113 36 0 49 11 302 268 245 249 263 269 264 303 0 47 -25 69 -78 69 -40 0 -45 -4 -295 -253z"/>
 </g>

</svg>